<?xml version="1.0" standalone="no"?>
<!DOCTYPE svg PUBLIC "-//W3C//DTD SVG 20010904//EN"
 "http://www.w3.org/TR/2001/REC-SVG-20010904/DTD/svg10.dtd">
<svg version="1.0" xmlns="http://www.w3.org/2000/svg"
 width="290.000000pt" height="290.000000pt" viewBox="0 0 290.000000 290.000000"
 preserveAspectRatio="xMidYMid meet">
<metadata>
Created by potrace 1.11, written by Peter Selinger 2001-2013
</metadata>
<g transform="translate(0.000000,290.000000) scale(0.100000,-0.100000)"
fill="#000000" stroke="none">
<path d="M0 1450 l0 -1450 1450 0 1450 0 0 1450 0 1450 -1450 0 -1450 0 0
-1450z m2020 786 l571 -570 -46 -46 c-25 -25 -45 -50 -45 -56 0 -5 20 -30 45
-54 25 -24 45 -48 45 -52 0 -5 -20 -30 -45 -56 l-45 -47 51 -51 c28 -28 49
-58 47 -65 -2 -8 -259 -268 -571 -579 l-567 -565 -577 577 -576 576 46 46 c26
25 47 49 47 53 0 4 -25 32 -55 63 l-55 56 50 49 c27 27 50 54 50 59 0 6 -20
31 -45 56 l-45 46 567 567 c313 312 571 566 575 564 4 -1 264 -258 578 -571z"/>
<path d="M888 2243 c-301 -301 -548 -552 -548 -558 0 -6 18 -29 40 -50 l40
-39 510 509 510 510 515 -515 515 -515 47 48 48 47 -555 555 c-305 305 -559
555 -565 555 -5 0 -256 -246 -557 -547z"/>
<path d="M937 2072 l-497 -497 50 -50 50 -50 458 457 457 457 455 -449 c250
-247 457 -450 460 -450 3 0 24 18 45 40 l39 40 -499 500 c-275 275 -504 500
-510 500 -6 0 -234 -224 -508 -498z"/>
<path d="M1003 1904 c-244 -244 -442 -448 -441 -452 0 -4 201 -205 445 -447
l443 -440 450 450 450 450 -442 442 c-244 244 -447 443 -453 442 -5 0 -209
-200 -452 -445z m251 -173 c136 -32 156 -227 31 -297 -18 -10 -14 -18 63 -112
45 -55 82 -105 82 -111 0 -7 -26 -11 -69 -11 l-69 0 -73 100 c-41 54 -76 99
-79 100 -3 0 -5 -44 -5 -97 l0 -98 -60 0 -60 0 -3 255 c-1 140 0 260 3 267 5
15 177 18 239 4z m561 -6 c86 -23 89 -27 59 -87 -20 -39 -29 -48 -42 -43 -50
22 -99 27 -141 15 -137 -37 -155 -213 -28 -271 50 -22 105 -24 152 -4 l35 14
25 -50 26 -50 -44 -19 c-111 -49 -229 -33 -315 45 -66 60 -92 114 -92 194 0
97 56 187 145 234 76 39 131 45 220 22z"/>
<path d="M1140 1639 c-1 -2 -2 -33 -3 -69 -1 -64 -1 -65 27 -68 45 -6 76 22
76 67 0 21 -6 44 -14 50 -14 11 -85 28 -86 20z"/>
<path d="M377 1512 c-20 -21 -37 -42 -37 -48 0 -5 20 -30 45 -54 l45 -44 40
39 c22 21 40 44 40 49 0 11 -80 96 -90 96 -3 0 -23 -17 -43 -38z"/>
<path d="M2432 1507 l-42 -43 45 -44 45 -44 35 34 c19 19 35 41 35 50 0 9 -17
33 -38 53 l-38 37 -42 -43z"/>
<path d="M1908 983 l-458 -458 -453 453 c-248 248 -457 452 -463 452 -5 0 -28
-18 -49 -40 l-40 -40 500 -500 500 -499 503 499 c276 274 502 503 502 507 0 9
-72 83 -80 83 -3 0 -211 -206 -462 -457z"/>
<path d="M1963 818 l-513 -513 -508 508 c-279 279 -512 507 -518 507 -13 0
-74 -62 -74 -76 0 -5 250 -259 555 -564 l555 -555 557 557 558 558 -45 45
c-24 25 -47 45 -50 45 -3 0 -236 -231 -517 -512z"/>
</g>
</svg>
