<?xml version="1.0" standalone="no"?>
<!DOCTYPE svg PUBLIC "-//W3C//DTD SVG 20010904//EN"
 "http://www.w3.org/TR/2001/REC-SVG-20010904/DTD/svg10.dtd">
<svg version="1.0" xmlns="http://www.w3.org/2000/svg"
 width="512.000000pt" height="512.000000pt" viewBox="0 0 512.000000 512.000000"
 preserveAspectRatio="xMidYMid meet">
<metadata>
Created by potrace 1.11, written by Peter Selinger 2001-2013
</metadata>
<g transform="translate(0.000000,512.000000) scale(0.100000,-0.100000)"
fill="#000000" stroke="none">
<path d="M3825 3921 c-70 -18 -125 -63 -161 -131 -29 -53 -27 -200 3 -256 80
-149 307 -181 428 -59 125 125 85 343 -78 427 -45 22 -142 32 -192 19z"/>
<path d="M823 3900 c-29 -27 -36 -57 -31 -130 5 -68 25 -97 72 -104 17 -3 71
-10 120 -17 119 -16 153 -31 174 -77 16 -34 17 -123 17 -1062 0 -962 -1 -1027
-18 -1057 -9 -18 -28 -40 -42 -49 -27 -17 -157 -43 -223 -44 -34 0 -50 -6 -73
-29 -27 -27 -29 -35 -29 -100 0 -59 4 -74 24 -98 l24 -28 402 -3 402 -3 -101
-100 c-56 -55 -101 -102 -101 -104 0 -3 61 -5 135 -5 l135 0 0 105 0 105 109
0 c102 0 112 2 138 24 27 23 28 27 25 108 -4 113 -8 116 -157 134 -127 14
-177 33 -209 77 -20 28 -21 42 -24 478 l-3 449 124 0 c152 0 214 -11 295 -52
123 -62 224 -177 366 -421 80 -135 243 -475 305 -632 29 -71 61 -138 72 -147
19 -16 49 -18 303 -18 204 1 289 4 311 14 24 10 34 10 55 -1 20 -10 125 -13
487 -13 l462 0 25 23 c27 24 29 32 27 123 -2 93 -15 105 -133 115 -127 10
-163 26 -177 76 -7 25 -11 306 -11 844 0 765 -1 808 -18 829 -23 29 -44 29
-214 2 -75 -12 -205 -25 -289 -29 -138 -6 -154 -8 -178 -29 -24 -21 -26 -28
-26 -108 0 -120 8 -127 157 -136 62 -4 120 -10 129 -14 38 -16 39 -40 39 -706
l0 -648 -25 -30 c-29 -35 -91 -52 -184 -52 -33 0 -65 -6 -76 -14 -17 -12 -23
-12 -47 0 -15 8 -42 14 -61 14 -18 0 -57 7 -87 16 -91 27 -147 95 -264 319
-206 393 -296 533 -428 666 l-77 77 86 27 c272 85 438 240 515 480 29 89 36
289 14 389 -53 238 -246 431 -521 519 -183 60 -197 60 -980 64 -719 4 -720 4
-742 -17z m1469 -278 c242 -65 358 -216 358 -462 0 -144 -36 -237 -124 -326
-131 -131 -358 -184 -783 -184 l-153 0 0 438 c0 401 2 440 19 477 34 75 82 85
376 81 194 -3 242 -7 307 -24z"/>
</g>
</svg>
